<svg id="Слой_1" data-name="Слой 1" xmlns="http://www.w3.org/2000/svg" viewBox="0 0 207.67 94"><defs><style>.cls-1{fill:#faed23;}.cls-2{fill:#fff;}</style></defs><title>LOGO_TEATRDOC</title><rect class="cls-1" x="-46.33" y="-23" width="306" height="161.33"/><rect class="cls-2" width="207.67" height="94"/><path d="M29.49,39.68h-6V35.46H40.56v4.22H34.5v18h-5Z"/><path d="M56.44,48.28H48.27v5.27h9.12v4.12H43.26V35.46H56.93v4.12H48.27v4.61h8.17Z"/><path d="M66,52l-1.58,5.7H59.23L66,35.46h6.59L79.5,57.67H74.06L72.35,52Zm5.63-3.76L70.24,43.5c-.4-1.32-.79-3-1.12-4.28h-.07c-.33,1.32-.66,3-1,4.28l-1.32,4.71Z"/><path d="M84.6,39.68h-6V35.46H95.67v4.22H89.61v18h-5Z"/><path d="M98.34,35.76a41.4,41.4,0,0,1,6.78-.46c3.1,0,5.31.59,6.79,1.78a6.38,6.38,0,0,1,2.37,5.14,6.93,6.93,0,0,1-2,5.27A10.48,10.48,0,0,1,105,49.83a9.3,9.3,0,0,1-1.71-.13v8h-5Zm5,10.08A7.43,7.43,0,0,0,105,46c2.67,0,4.32-1.35,4.32-3.59,0-2-1.42-3.26-4-3.26a8.75,8.75,0,0,0-2,.17Z"/><path d="M112.1,55a3,3,0,1,1,2.9,3A2.88,2.88,0,0,1,112.1,55Z"/><path d="M121.2,35.79A45.14,45.14,0,0,1,128,35.3c4.25,0,7,.79,9.12,2.37,2.31,1.71,3.76,4.45,3.76,8.37,0,4.25-1.55,7.18-3.66,9-2.34,1.95-5.93,2.87-10.27,2.87a43.83,43.83,0,0,1-5.7-.33Zm5,18.09A9.38,9.38,0,0,0,128,54c4.58,0,7.58-2.47,7.58-7.78,0-4.61-2.7-7.05-7.05-7.05a10.63,10.63,0,0,0-2.28.2Z"/><path d="M164.45,46.34c0,7.31-4.38,11.69-10.91,11.69s-10.44-5-10.44-11.33c0-6.66,4.28-11.63,10.81-11.63C160.73,35.07,164.45,40.17,164.45,46.34Zm-16,.26c0,4.38,2,7.44,5.4,7.44s5.33-3.22,5.33-7.54c0-4-1.87-7.45-5.33-7.45S148.41,42.28,148.41,46.6Z"/><path d="M184,57.08a15,15,0,0,1-5.67,1c-7.68,0-11.63-4.81-11.63-11.13,0-7.58,5.4-11.77,12.12-11.77a12.61,12.61,0,0,1,5.47,1l-1.05,4a10.57,10.57,0,0,0-4.22-.83c-3.95,0-7,2.41-7,7.35,0,4.45,2.64,7.25,7.08,7.25a11.92,11.92,0,0,0,4.22-.73Z"/></svg>