<svg width="854" height="66" viewBox="0 0 854 66" fill="none" xmlns="http://www.w3.org/2000/svg">
<path d="M169.411 1.54321C174.978 1.54321 179.796 2.47096 183.866 4.32647C187.996 6.18198 191.169 8.81561 193.383 12.2273C195.598 15.6391 196.705 19.6793 196.705 24.348C196.705 28.9568 195.598 32.9971 193.383 36.4687C191.169 39.8804 187.996 42.514 183.866 44.3695C179.796 46.1652 174.978 47.063 169.411 47.063H156.752V64.3911H142.207V1.54321H169.411ZM168.603 35.2117C172.973 35.2117 176.295 34.284 178.569 32.4284C180.844 30.5131 181.981 27.8196 181.981 24.348C181.981 20.8166 180.844 18.1231 178.569 16.2676C176.295 14.3522 172.973 13.3945 168.603 13.3945H156.752V35.2117H168.603Z" fill="white"/>
<path d="M238.402 65.4685C231.878 65.4685 225.982 64.0619 220.715 61.2487C215.508 58.4355 211.408 54.5748 208.415 49.6667C205.482 44.6987 204.016 39.1322 204.016 32.9671C204.016 26.8021 205.482 21.2655 208.415 16.3573C211.408 11.3894 215.508 7.49879 220.715 4.6856C225.982 1.87241 231.878 0.46582 238.402 0.46582C244.927 0.46582 250.792 1.87241 256 4.6856C261.207 7.49879 265.307 11.3894 268.3 16.3573C271.293 21.2655 272.789 26.8021 272.789 32.9671C272.789 39.1322 271.293 44.6987 268.3 49.6667C265.307 54.5748 261.207 58.4355 256 61.2487C250.792 64.0619 244.927 65.4685 238.402 65.4685ZM238.402 53.0785C242.113 53.0785 245.465 52.2405 248.458 50.5645C251.451 48.8287 253.785 46.4345 255.461 43.3819C257.197 40.3293 258.065 36.8577 258.065 32.9671C258.065 29.0766 257.197 25.605 255.461 22.5524C253.785 19.4997 251.451 17.1355 248.458 15.4595C245.465 13.7237 242.113 12.8558 238.402 12.8558C234.691 12.8558 231.339 13.7237 228.347 15.4595C225.354 17.1355 222.99 19.4997 221.254 22.5524C219.578 25.605 218.74 29.0766 218.74 32.9671C218.74 36.8577 219.578 40.3293 221.254 43.3819C222.99 46.4345 225.354 48.8287 228.347 50.5645C231.339 52.2405 234.691 53.0785 238.402 53.0785Z" fill="white"/>
<path d="M304.37 65.4685C299.402 65.4685 294.584 64.8101 289.915 63.4932C285.306 62.1166 281.595 60.3509 278.782 58.1961L283.72 47.2426C286.414 49.2178 289.616 50.804 293.327 52.0011C297.038 53.1982 300.749 53.7967 304.46 53.7967C308.59 53.7967 311.643 53.1982 313.618 52.0011C315.593 50.7441 316.581 49.0981 316.581 47.063C316.581 45.5666 315.982 44.3396 314.785 43.3819C313.648 42.3644 312.151 41.5563 310.296 40.9578C308.5 40.3592 306.046 39.7008 302.934 38.9826C298.145 37.8453 294.225 36.7081 291.172 35.5708C288.12 34.4336 285.486 32.608 283.271 30.0941C281.116 27.5802 280.039 24.2283 280.039 20.0384C280.039 16.3873 281.027 13.0952 283.002 10.1623C284.977 7.16959 287.94 4.80531 291.89 3.06952C295.901 1.33372 300.779 0.46582 306.525 0.46582C310.535 0.46582 314.456 0.94466 318.286 1.90234C322.117 2.86002 325.469 4.23669 328.342 6.03234L323.853 17.0756C318.047 13.7836 312.241 12.1376 306.435 12.1376C302.365 12.1376 299.342 12.796 297.367 14.1128C295.452 15.4296 294.494 17.1654 294.494 19.3202C294.494 21.475 295.601 23.091 297.816 24.1684C300.091 25.186 303.532 26.2035 308.141 27.221C312.929 28.3583 316.85 29.4955 319.903 30.6328C322.955 31.77 325.559 33.5657 327.714 36.0198C329.928 38.4738 331.036 41.7958 331.036 45.9856C331.036 49.5769 330.018 52.869 327.983 55.8617C326.008 58.7946 323.015 61.129 319.005 62.8648C314.994 64.6006 310.116 65.4685 304.37 65.4685Z" fill="white"/>
<path d="M353.116 13.3945H333.005V1.54321H387.772V13.3945H367.661V64.3911H353.116V13.3945Z" fill="white"/>
<path d="M422.802 1.54321C428.368 1.54321 433.187 2.47096 437.257 4.32647C441.387 6.18198 444.559 8.81561 446.774 12.2273C448.989 15.6391 450.096 19.6793 450.096 24.348C450.096 28.9568 448.989 32.9971 446.774 36.4687C444.559 39.8804 441.387 42.514 437.257 44.3695C433.187 46.1652 428.368 47.063 422.802 47.063H410.143V64.3911H395.598V1.54321H422.802ZM421.994 35.2117C426.363 35.2117 429.685 34.284 431.96 32.4284C434.234 30.5131 435.371 27.8196 435.371 24.348C435.371 20.8166 434.234 18.1231 431.96 16.2676C429.685 14.3522 426.363 13.3945 421.994 13.3945H410.143V35.2117H421.994Z" fill="white"/>
<path d="M460.48 1.54321H475.025V64.3911H460.48V1.54321Z" fill="white"/>
<path d="M520.017 65.4685C513.612 65.4685 507.806 64.0918 502.599 61.3385C497.452 58.5253 493.381 54.6646 490.389 49.7565C487.456 44.7885 485.989 39.1921 485.989 32.9671C485.989 26.7422 487.456 21.1757 490.389 16.2676C493.381 11.2996 497.452 7.43894 502.599 4.6856C507.806 1.87241 513.642 0.46582 520.107 0.46582C525.554 0.46582 530.462 1.4235 534.831 3.33887C539.26 5.25423 542.971 8.00756 545.964 11.5989L536.627 20.218C532.377 15.3099 527.11 12.8558 520.825 12.8558C516.934 12.8558 513.463 13.7237 510.41 15.4595C507.358 17.1355 504.963 19.4997 503.228 22.5524C501.552 25.605 500.714 29.0766 500.714 32.9671C500.714 36.8577 501.552 40.3293 503.228 43.3819C504.963 46.4345 507.358 48.8287 510.41 50.5645C513.463 52.2405 516.934 53.0785 520.825 53.0785C527.11 53.0785 532.377 50.5945 536.627 45.6265L545.964 54.2456C542.971 57.8968 539.26 60.6801 534.831 62.5954C530.402 64.5108 525.464 65.4685 520.017 65.4685Z" fill="white"/>
<path d="M568.191 13.3945H548.08V1.54321H602.847V13.3945H582.736V64.3911H568.191V13.3945Z" fill="white"/>
<path d="M637.543 65.4685C628.565 65.4685 621.562 62.9845 616.534 58.0165C611.566 53.0485 609.082 45.9557 609.082 36.738V1.54321H623.627V36.1993C623.627 47.4521 628.295 53.0785 637.633 53.0785C642.182 53.0785 645.653 51.7317 648.048 49.0382C650.442 46.2849 651.639 42.0053 651.639 36.1993V1.54321H666.004V36.738C666.004 45.9557 663.49 53.0485 658.462 58.0165C653.494 62.9845 646.521 65.4685 637.543 65.4685Z" fill="white"/>
<path d="M720.42 64.3911L708.3 46.8835H694.922V64.3911H680.377V1.54321H707.581C713.148 1.54321 717.966 2.47096 722.036 4.32647C726.166 6.18198 729.339 8.81561 731.553 12.2273C733.768 15.6391 734.875 19.6793 734.875 24.348C734.875 29.0167 733.738 33.0569 731.463 36.4687C729.249 39.8205 726.077 42.3943 721.947 44.19L736.042 64.3911H720.42ZM720.151 24.348C720.151 20.8166 719.014 18.1231 716.739 16.2676C714.465 14.3522 711.143 13.3945 706.773 13.3945H694.922V35.3015H706.773C711.143 35.3015 714.465 34.3438 716.739 32.4284C719.014 30.5131 720.151 27.8196 720.151 24.348Z" fill="white"/>
<path d="M795.061 52.7193V64.3911H746.399V1.54321H793.894V13.215H760.854V26.8619H790.033V38.1745H760.854V52.7193H795.061Z" fill="white"/>
<path d="M827.284 65.4685C822.316 65.4685 817.498 64.8101 812.829 63.4932C808.22 62.1166 804.509 60.3509 801.696 58.1961L806.634 47.2426C809.327 49.2178 812.53 50.804 816.241 52.0011C819.952 53.1982 823.663 53.7967 827.374 53.7967C831.504 53.7967 834.556 53.1982 836.532 52.0011C838.507 50.7441 839.494 49.0981 839.494 47.063C839.494 45.5666 838.896 44.3396 837.699 43.3819C836.562 42.3644 835.065 41.5563 833.21 40.9578C831.414 40.3592 828.96 39.7008 825.847 38.9826C821.059 37.8453 817.139 36.7081 814.086 35.5708C811.033 34.4336 808.4 32.608 806.185 30.0941C804.03 27.5802 802.953 24.2283 802.953 20.0384C802.953 16.3873 803.94 13.0952 805.916 10.1623C807.891 7.16959 810.854 4.80531 814.804 3.06952C818.814 1.33372 823.693 0.46582 829.439 0.46582C833.449 0.46582 837.37 0.94466 841.2 1.90234C845.031 2.86002 848.383 4.23669 851.256 6.03234L846.767 17.0756C840.961 13.7836 835.155 12.1376 829.349 12.1376C825.279 12.1376 822.256 12.796 820.281 14.1128C818.366 15.4296 817.408 17.1654 817.408 19.3202C817.408 21.475 818.515 23.091 820.73 24.1684C823.004 25.186 826.446 26.2035 831.055 27.221C835.843 28.3583 839.764 29.4955 842.816 30.6328C845.869 31.77 848.473 33.5657 850.628 36.0198C852.842 38.4738 853.949 41.7958 853.949 45.9856C853.949 49.5769 852.932 52.869 850.897 55.8617C848.922 58.7946 845.929 61.129 841.919 62.8648C837.908 64.6006 833.03 65.4685 827.284 65.4685Z" fill="white"/>
<path fill-rule="evenodd" clip-rule="evenodd" d="M5.86889 0.966888C2.65557 0.966888 0.0506592 3.57179 0.0506592 6.78511V59.1492C0.0506592 62.3625 2.65557 64.9674 5.86889 64.9674H87.3241C90.5374 64.9674 93.1423 62.3625 93.1423 59.1492V6.78512C93.1423 3.5718 90.5374 0.966888 87.3241 0.966888H5.86889ZM62.5984 11.8125C61.8124 11.8125 61.1752 12.4497 61.1752 13.2357V29.0888C61.1752 29.8748 61.8124 30.512 62.5984 30.512H78.4514C79.2375 30.512 79.8746 29.8748 79.8746 29.0888V13.2357C79.8746 12.4497 79.2375 11.8125 78.4514 11.8125H62.5984Z" fill="white"/>
</svg>
